<?xml version="1.0" standalone="no"?>
<!DOCTYPE svg PUBLIC "-//W3C//DTD SVG 20010904//EN"
 "http://www.w3.org/TR/2001/REC-SVG-20010904/DTD/svg10.dtd">
<svg version="1.0" xmlns="http://www.w3.org/2000/svg"
 width="1200.000000pt" height="1200.000000pt" viewBox="0 0 1200.000000 1200.000000"
 preserveAspectRatio="xMidYMid meet">

<g transform="translate(0.000000,1200.000000) scale(0.100000,-0.100000)"
fill="#000000" stroke="none">
<path d="M5775 10914 c-336 -24 -532 -49 -755 -95 -2108 -435 -3676 -2145
-3925 -4283 -80 -688 -4 -1426 214 -2086 205 -618 490 -1132 909 -1640 122
-147 463 -488 612 -611 811 -672 1758 -1056 2813 -1140 196 -15 704 -7 892 16
978 115 1853 485 2608 1102 170 139 523 491 658 658 623 764 994 1640 1104
2607 141 1239 -213 2520 -972 3520 -835 1100 -2079 1795 -3463 1933 -148 15
-589 27 -695 19z m495 -204 c1034 -64 2002 -450 2785 -1109 123 -104 388 -364
499 -491 543 -619 918 -1368 1081 -2160 58 -284 82 -484 94 -773 84 -2013
-1107 -3847 -2984 -4597 -425 -170 -895 -279 -1380 -320 -155 -13 -565 -13
-731 0 -1884 148 -3495 1395 -4114 3185 -296 857 -336 1802 -114 2687 309
1231 1098 2286 2193 2933 797 470 1755 701 2671 645z"/>
<path d="M5740 9760 c-190 -27 -354 -78 -536 -170 -514 -257 -864 -758 -949
-1358 -25 -177 -17 -459 19 -624 104 -484 361 -872 751 -1133 425 -285 945
-356 1426 -195 628 209 1078 768 1175 1460 24 170 15 452 -20 617 -151 713
-661 1238 -1344 1384 -111 23 -411 34 -522 19z"/>
<path d="M3945 6136 c-239 -47 -414 -157 -621 -394 -103 -118 -153 -198 -265
-425 -227 -462 -329 -930 -329 -1512 0 -280 22 -516 70 -750 33 -162 45 -176
260 -317 324 -213 784 -377 1170 -417 52 -6 178 -19 280 -30 475 -52 687 -61
1435 -61 712 0 986 11 1365 55 69 8 179 19 245 25 492 43 1008 234 1381 511
82 60 94 73 112 121 46 125 91 467 99 763 13 498 -63 973 -219 1373 -57 143
-194 419 -258 515 -107 161 -311 361 -451 441 -127 73 -332 122 -465 112 -211
-16 -378 -95 -530 -250 -236 -241 -780 -419 -1284 -419 -432 0 -887 125 -1177
324 -26 18 -92 75 -146 126 -153 145 -300 208 -507 218 -59 3 -122 -1 -165 -9z"/>
</g>
</svg>
